<svg xmlns="http://www.w3.org/2000/svg" xmlns:xlink="http://www.w3.org/1999/xlink" width="2000" zoomAndPan="magnify" viewBox="0 0 1500 1499.999933" height="2000" preserveAspectRatio="xMidYMid meet" version="1.0"><path stroke-linecap="butt" transform="matrix(14.02857, 0, 0, 14.027769, -662.53791, -646.440324)" fill-opacity="1" fill="#232323" fill-rule="nonzero" stroke-linejoin="round" d="M 150.056695 85.065848 L 93.064741 85.065848 C 88.633494 85.065848 85.065997 88.633548 85.065997 93.06477 L 85.065997 150.056915 L 126.060185 150.056915 C 139.354205 150.056915 150.056695 139.354372 150.056695 126.060149 Z M 150.056695 85.065848 " stroke="#ffffff" stroke-width="4" stroke-opacity="1" stroke-miterlimit="4"/><path stroke-linecap="butt" transform="matrix(14.02857, 0, 0, 14.027769, -662.53791, -646.440324)" fill-opacity="1" fill="#667eea" fill-rule="nonzero" stroke-linejoin="round" d="M 74.000131 50.000078 C 60.704162 50.000078 50.000002 60.704014 50.000002 74.000185 L 50.000002 126.000001 C 50.000002 139.296172 60.704162 150.000108 74.000131 150.000108 L 85.000005 150.000108 L 85.000005 92.999888 C 85.000005 88.568109 88.568058 84.999852 93.000141 84.999852 L 150.000169 84.999852 L 150.000169 74.000185 C 150.000169 60.704014 139.296009 50.000078 126.00004 50.000078 Z M 74.000131 50.000078 " stroke="#ffffff" stroke-width="4" stroke-opacity="1" stroke-miterlimit="4"/><path fill="#f7d303" d="M 719.101562 936.941406 L 1073.148438 666.488281 L 936.976562 855.242188 L 1061.878906 849.605469 L 681.535156 1213.964844 L 866.542969 925.671875 Z M 719.101562 936.941406 " fill-opacity="1" fill-rule="nonzero"/></svg>