<?xml version="1.0" encoding="UTF-8" standalone="no"?>
<!-- Created with Inkscape (http://www.inkscape.org/) -->

<svg
   width="100"
   height="100"
   viewBox="45 45 110 110"
   version="1.1"
   id="svg1"
   inkscape:version="1.4.2 (ebf0e940d0, 2025-05-08)"
   sodipodi:docname="card_vault.svg"
   xml:space="preserve"
   xmlns:inkscape="http://www.inkscape.org/namespaces/inkscape"
   xmlns:sodipodi="http://sodipodi.sourceforge.net/DTD/sodipodi-0.dtd"
   xmlns="http://www.w3.org/2000/svg"
   xmlns:svg="http://www.w3.org/2000/svg"><sodipodi:namedview
     id="namedview1"
     pagecolor="#ffffff"
     bordercolor="#000000"
     borderopacity="0.25"
     inkscape:showpageshadow="2"
     inkscape:pageopacity="0.0"
     inkscape:pagecheckerboard="0"
     inkscape:deskcolor="#d1d1d1"
     inkscape:document-units="mm"
     showguides="true"
     inkscape:export-bgcolor="#77777700"
     inkscape:zoom="0.72352933"
     inkscape:cx="488.57729"
     inkscape:cy="479.59355"
     inkscape:window-width="1904"
     inkscape:window-height="1014"
     inkscape:window-x="0"
     inkscape:window-y="0"
     inkscape:window-maximized="1"
     inkscape:current-layer="svg1" /><defs
     id="defs1" /><path
     id="rect2"
     style="fill:#232323;fill-opacity:1;stroke:#ffffff;stroke-width:4;stroke-linejoin:round;stroke-dasharray:none;stroke-opacity:1"
     d="M 150.0568,85.065931 H 93.064814 c -4.431365,0 -7.998883,3.567518 -7.998883,7.998883 V 150.0568 h 40.994219 c 13.29409,0 23.99665,-10.70256 23.99665,-23.99665 z"
     inkscape:label="small square" /><path
     id="path4"
     style="fill:#667eea;fill-opacity:1;stroke:#ffffff;stroke-width:4;stroke-linejoin:round;stroke-dasharray:none;stroke-opacity:1"
     d="M 74.000134 50.000049 C 60.704134 50.000049 50.000049 60.704134 50.000049 74.000134 L 50.000049 126.00006 C 50.000049 139.29606 60.704134 150.00015 74.000134 150.00015 L 84.99998 150.00015 L 84.99998 93.000008 C 84.99998 88.568008 88.568008 84.99998 93.000008 84.99998 L 150.00015 84.99998 L 150.00015 74.000134 C 150.00015 60.704134 139.29606 50.000049 126.00006 50.000049 L 74.000134 50.000049 z "
     inkscape:label="big square" /><g
     inkscape:label="Layer 1"
     inkscape:groupmode="layer"
     id="layer1" /><g
     id="spark"
     transform="matrix(0.03806308,0,0,0.03806308,81.223757,84.547746)"><path
       fill="#f7d303"
       d="M 453.55469,744.21094 1116.6016,237.69141 861.58594,591.19922 1095.4961,580.64844 383.20703,1263.0391 729.67969,723.10547 Z m 0,0"
       fill-opacity="1"
       fill-rule="nonzero"
       id="path2" /></g></svg>
